# xmcd
#
# Track frame offsets:
# 150
# 15455
# 37393
# 55952
# 71596
# 89021
# 104712
# 120381
# 138942
# 155503
# 171729
#
# Disc length: 2628 seconds
#
#
# Revision: 0
# Processed by: cddbd v1.4PL0 Copyright (c) Steve Scherf et al.
# Submitted via: FreeRIP 2.35 
#
DISCID=a20a420b
DTITLE=Aaron Lines - Living Out Loud
DYEAR=1900
DGENRE=
TTITLE0=Love Changes Everything
TTITLE1=I Will Be There
TTITLE2=Close
TTITLE3=Living Out Loud
TTITLE4=Turn It Up{I Like The Sound Of That}
TTITLE5=You Can't Hide Beautiful
TTITLE6=Knock On Wood
TTITLE7=Old Days Now
TTITLE8=She Called Me Kansas
TTITLE9=You Get The Picture
TTITLE10=I Can't Live Without Your Love
EXTD=
EXTT0=
EXTT1=
EXTT2=
EXTT3=
EXTT4=
EXTT5=
EXTT6=
EXTT7=
EXTT8=
EXTT9=
EXTT10=
PLAYORDER=
